<svg xmlns="http://www.w3.org/2000/svg" xmlns:xlink="http://www.w3.org/1999/xlink" width="400" zoomAndPan="magnify" viewBox="0 0 300 149.999998" height="200" preserveAspectRatio="xMidYMid meet" version="1.0"><defs><g/><clipPath id="a38d486125"><path d="M 22 0.734375 L 115.5 0.734375 L 115.5 149.984375 L 22 149.984375 Z M 22 0.734375 " clip-rule="nonzero"/></clipPath></defs><g clip-path="url(#a38d486125)"><path fill="#444142" d="M 82.382812 21.230469 L 86.808594 0.882812 L 63.90625 49.066406 L 96 60.613281 L 22.738281 149.835938 L 50.566406 130.597656 C 52.917969 130.890625 55.316406 131.039062 57.75 131.039062 C 89.648438 131.039062 115.503906 105.226562 115.503906 73.386719 C 115.503906 50.34375 101.957031 30.460938 82.382812 21.230469 " fill-opacity="1" fill-rule="nonzero"/></g><path fill="#38b6ff" d="M 60.175781 73.277344 L 28.457031 60.242188 L 70.753906 17.214844 C 66.574219 16.253906 62.222656 15.738281 57.75 15.738281 C 25.851562 15.738281 -0.00390625 41.546875 -0.00390625 73.386719 C -0.00390625 94.359375 11.214844 112.707031 27.988281 122.796875 L 60.175781 73.277344 " fill-opacity="1" fill-rule="nonzero"/><g fill="#444142" fill-opacity="1"><g transform="translate(130.808169, 75.837761)"><g><path d="M 9.636719 -5.839844 L 9.636719 -11.851562 L 19.777344 -11.851562 L 19.777344 -17.566406 L 9.636719 -17.566406 L 9.636719 -23.367188 L 20.863281 -23.367188 L 20.863281 -29.207031 L 3.339844 -29.207031 L 3.339844 0 L 21.320312 0 L 21.320312 -5.839844 Z M 9.636719 -5.839844 "/></g></g></g><g fill="#444142" fill-opacity="1"><g transform="translate(157.887297, 75.837761)"><g><path d="M 15.730469 -23.03125 C 12.683594 -23.03125 9.972656 -21.738281 8.261719 -19.734375 L 7.09375 -22.53125 L 2.921875 -22.53125 L 2.921875 0 L 9.011719 0 L 9.011719 -11.808594 C 9.011719 -15.4375 10.933594 -17.691406 14.0625 -17.691406 C 16.691406 -17.691406 17.984375 -16.0625 17.984375 -12.644531 L 17.984375 0 L 24.074219 0 L 24.074219 -13.644531 C 24.074219 -19.359375 20.863281 -23.03125 15.730469 -23.03125 Z M 15.730469 -23.03125 "/></g></g></g><g fill="#444142" fill-opacity="1"><g transform="translate(188.387758, 75.837761)"><g><path d="M 24.785156 -11.308594 C 24.785156 -17.816406 20.027344 -23.15625 13.101562 -23.15625 C 6.425781 -23.15625 1.417969 -18.027344 1.417969 -11.265625 C 1.417969 -4.507812 6.46875 0.667969 13.101562 0.667969 C 18.359375 0.667969 22.65625 -2.460938 24.285156 -7.386719 L 17.898438 -7.386719 C 16.980469 -5.757812 15.230469 -4.757812 13.101562 -4.757812 C 10.140625 -4.757812 8.136719 -6.46875 7.59375 -9.554688 L 24.660156 -9.554688 C 24.742188 -10.140625 24.785156 -10.722656 24.785156 -11.308594 Z M 13.101562 -17.941406 C 15.855469 -17.941406 17.816406 -16.441406 18.691406 -13.6875 L 7.761719 -13.6875 C 8.46875 -16.355469 10.390625 -17.941406 13.101562 -17.941406 Z M 13.101562 -17.941406 "/></g></g></g><g fill="#444142" fill-opacity="1"><g transform="translate(218.345816, 75.837761)"><g><path d="M 14.4375 -22.65625 C 11.515625 -22.65625 9.511719 -21.738281 7.886719 -19.734375 L 6.800781 -22.53125 L 2.921875 -22.53125 L 2.921875 0 L 9.011719 0 L 9.011719 -11.683594 C 9.011719 -15.355469 10.347656 -16.898438 13.769531 -16.898438 L 16.441406 -16.898438 L 16.441406 -22.65625 Z M 14.4375 -22.65625 "/></g></g></g><g fill="#444142" fill-opacity="1"><g transform="translate(239.082964, 75.837761)"><g><path d="M 21.113281 -22.53125 L 20.113281 -20.277344 C 18.152344 -22.074219 15.5625 -23.15625 12.644531 -23.15625 C 6.34375 -23.15625 1.417969 -18.152344 1.417969 -11.851562 C 1.417969 -5.507812 6.34375 -0.542969 12.644531 -0.542969 C 15.0625 -0.542969 17.273438 -1.292969 19.070312 -2.546875 L 19.070312 -1.710938 C 19.070312 1.585938 16.523438 3.589844 13.4375 3.589844 C 11.183594 3.589844 8.804688 2.546875 8.09375 0.5 L 2.042969 0.5 C 3.085938 5.632812 7.425781 8.761719 13.519531 8.761719 C 20.652344 8.761719 25.035156 4.464844 25.035156 -2.585938 L 25.035156 -22.488281 Z M 13.351562 -6.007812 C 10.015625 -6.007812 7.59375 -8.46875 7.59375 -11.808594 C 7.59375 -15.1875 10.015625 -17.648438 13.351562 -17.648438 C 16.691406 -17.648438 19.109375 -15.1875 19.109375 -11.808594 C 19.109375 -8.46875 16.691406 -6.007812 13.351562 -6.007812 Z M 13.351562 -6.007812 "/></g></g></g><g fill="#444142" fill-opacity="1"><g transform="translate(270.83515, 75.837761)"><g><path d="M 18.484375 -22.53125 L 12.851562 -8.636719 L 6.84375 -22.53125 L 0.207031 -22.53125 L 9.765625 -1.710938 L 9.679688 -1.542969 C 8.304688 1.878906 7.550781 2.671875 4.589844 2.671875 L 2.503906 2.671875 L 2.503906 8.136719 L 5.007812 8.136719 C 10.054688 8.136719 12.433594 5.839844 15.144531 -0.292969 L 24.953125 -22.53125 Z M 18.484375 -22.53125 "/></g></g></g><g fill="#38b6ff" fill-opacity="1"><g transform="translate(132.790308, 103.186567)"><g><path d="M 20.816406 0 L 18.167969 -15.976562 L 16.183594 -15.976562 L 10.886719 -4.246094 L 5.613281 -15.976562 L 3.675781 -15.976562 L 0.980469 0 L 3.035156 0 L 5.136719 -12.460938 L 10.636719 -0.386719 L 11.183594 -0.386719 L 16.683594 -12.460938 L 18.761719 0 Z M 20.816406 0 "/></g></g></g><g fill="#38b6ff" fill-opacity="1"><g transform="translate(156.901114, 103.186567)"><g><path d="M 7.507812 0.273438 C 11.230469 0.273438 14.035156 -2.464844 14.035156 -6.164062 C 14.035156 -9.835938 11.230469 -12.578125 7.507812 -12.578125 C 3.765625 -12.578125 0.957031 -9.859375 0.957031 -6.164062 C 0.957031 -2.464844 3.765625 0.273438 7.507812 0.273438 Z M 7.507812 -1.597656 C 4.863281 -1.597656 2.945312 -3.515625 2.945312 -6.164062 C 2.945312 -8.789062 4.863281 -10.703125 7.507812 -10.703125 C 10.132812 -10.703125 12.050781 -8.789062 12.050781 -6.140625 C 12.050781 -3.515625 10.132812 -1.597656 7.507812 -1.597656 Z M 7.507812 -1.597656 "/></g></g></g><g fill="#38b6ff" fill-opacity="1"><g transform="translate(174.214828, 103.186567)"><g><path d="M 8.101562 -12.578125 C 6.207031 -12.578125 4.632812 -11.753906 3.699219 -10.386719 L 3.332031 -12.324219 L 1.941406 -12.324219 L 1.941406 0 L 3.878906 0 L 3.878906 -6.710938 C 3.878906 -9.015625 5.5 -10.820312 7.625 -10.820312 C 9.746094 -10.820312 10.933594 -9.402344 10.933594 -6.914062 L 10.933594 0 L 12.871094 0 L 12.871094 -7.371094 C 12.871094 -10.386719 11.046875 -12.578125 8.101562 -12.578125 Z M 8.101562 -12.578125 "/></g></g></g><g fill="#38b6ff" fill-opacity="1"><g transform="translate(191.140784, 103.186567)"><g><path d="M 1.871094 -14.449219 L 3.972656 -14.449219 L 3.972656 -16.660156 L 1.871094 -16.660156 Z M 1.941406 0 L 3.878906 0 L 3.878906 -12.324219 L 1.941406 -12.324219 Z M 1.941406 0 "/></g></g></g><g fill="#38b6ff" fill-opacity="1"><g transform="translate(199.262437, 103.186567)"><g><path d="M 7.054688 -1.78125 C 5.363281 -1.78125 4.449219 -2.691406 4.449219 -4.359375 L 4.449219 -10.566406 L 8.332031 -10.566406 L 8.332031 -12.324219 L 4.449219 -12.324219 L 4.449219 -14.925781 L 4.152344 -14.925781 L 0.34375 -10.910156 L 0.34375 -10.566406 L 2.511719 -10.566406 L 2.511719 -4.289062 C 2.511719 -1.621094 4.152344 0 6.800781 0 L 8.398438 0 L 8.398438 -1.78125 Z M 7.054688 -1.78125 "/></g></g></g><g fill="#38b6ff" fill-opacity="1"><g transform="translate(210.577361, 103.186567)"><g><path d="M 7.507812 0.273438 C 11.230469 0.273438 14.035156 -2.464844 14.035156 -6.164062 C 14.035156 -9.835938 11.230469 -12.578125 7.507812 -12.578125 C 3.765625 -12.578125 0.957031 -9.859375 0.957031 -6.164062 C 0.957031 -2.464844 3.765625 0.273438 7.507812 0.273438 Z M 7.507812 -1.597656 C 4.863281 -1.597656 2.945312 -3.515625 2.945312 -6.164062 C 2.945312 -8.789062 4.863281 -10.703125 7.507812 -10.703125 C 10.132812 -10.703125 12.050781 -8.789062 12.050781 -6.140625 C 12.050781 -3.515625 10.132812 -1.597656 7.507812 -1.597656 Z M 7.507812 -1.597656 "/></g></g></g><g fill="#38b6ff" fill-opacity="1"><g transform="translate(227.891079, 103.186567)"><g><path d="M 7.578125 -12.371094 C 5.796875 -12.371094 4.519531 -11.707031 3.628906 -10.429688 L 3.332031 -12.324219 L 1.941406 -12.324219 L 1.941406 0 L 3.878906 0 L 3.878906 -6.6875 C 3.878906 -9.085938 5.160156 -10.542969 7.417969 -10.542969 L 8.671875 -10.542969 L 8.671875 -12.371094 Z M 7.578125 -12.371094 "/></g></g></g><g fill="#38b6ff" fill-opacity="1"><g transform="translate(238.97792, 103.186567)"><g><path d="M 1.871094 -14.449219 L 3.972656 -14.449219 L 3.972656 -16.660156 L 1.871094 -16.660156 Z M 1.941406 0 L 3.878906 0 L 3.878906 -12.324219 L 1.941406 -12.324219 Z M 1.941406 0 "/></g></g></g><g fill="#38b6ff" fill-opacity="1"><g transform="translate(247.099577, 103.186567)"><g><path d="M 8.101562 -12.578125 C 6.207031 -12.578125 4.632812 -11.753906 3.699219 -10.386719 L 3.332031 -12.324219 L 1.941406 -12.324219 L 1.941406 0 L 3.878906 0 L 3.878906 -6.710938 C 3.878906 -9.015625 5.5 -10.820312 7.625 -10.820312 C 9.746094 -10.820312 10.933594 -9.402344 10.933594 -6.914062 L 10.933594 0 L 12.871094 0 L 12.871094 -7.371094 C 12.871094 -10.386719 11.046875 -12.578125 8.101562 -12.578125 Z M 8.101562 -12.578125 "/></g></g></g><g fill="#38b6ff" fill-opacity="1"><g transform="translate(264.025538, 103.186567)"><g><path d="M 12.121094 -12.324219 L 11.824219 -10.40625 C 10.703125 -11.753906 9.015625 -12.578125 7.03125 -12.578125 C 3.605469 -12.578125 0.980469 -9.90625 0.980469 -6.480469 C 0.980469 -3.035156 3.605469 -0.386719 7.03125 -0.386719 C 8.855469 -0.386719 10.429688 -1.074219 11.527344 -2.214844 L 11.527344 -1.460938 C 11.527344 1.277344 9.835938 2.898438 7.371094 2.898438 C 5.59375 2.898438 4.039062 2.03125 3.492188 0.503906 L 1.550781 0.503906 C 2.214844 3.105469 4.359375 4.679688 7.371094 4.679688 C 11.136719 4.679688 13.421875 2.257812 13.421875 -1.710938 L 13.421875 -12.300781 Z M 7.234375 -2.238281 C 4.769531 -2.238281 2.945312 -4.0625 2.945312 -6.480469 C 2.945312 -8.902344 4.769531 -10.726562 7.234375 -10.726562 C 9.699219 -10.726562 11.503906 -8.925781 11.503906 -6.480469 C 11.503906 -4.039062 9.722656 -2.238281 7.234375 -2.238281 Z M 7.234375 -2.238281 "/></g></g></g></svg>